<svg width="15" height="15" viewBox="0 0 15 15" fill="none" xmlns="http://www.w3.org/2000/svg">
  <path d="M2 1.5C2 1.22386 2.22386 1 2.5 1H7.5C7.77614 1 8 1.22386 8 1.5V14H2V1.5ZM3 2V13H7V2H3ZM4 3.5C4 3.22386 4.22386 3 4.5 3H5.5C5.77614 3 6 3.22386 6 3.5C6 3.77614 5.77614 4 5.5 4H4.5C4.22386 4 4 3.77614 4 3.5ZM4.5 5C4.22386 5 4 5.22386 4 5.5C4 5.77614 4.22386 6 4.5 6H5.5C5.77614 6 6 5.77614 6 5.5C6 5.22386 5.77614 5 5.5 5H4.5ZM4 7.5C4 7.22386 4.22386 7 4.5 7H5.5C5.77614 7 6 7.22386 6 7.5C6 7.77614 5.77614 8 5.5 8H4.5C4.22386 8 4 7.77614 4 7.5ZM9 5.5C9 5.22386 9.22386 5 9.5 5H12.5C12.7761 5 13 5.22386 13 5.5V14H9V5.5ZM10 6V13H12V6H10ZM10.5 7C10.2239 7 10 7.22386 10 7.5C10 7.77614 10.2239 8 10.5 8H11.5C11.7761 8 12 7.77614 12 7.5C12 7.22386 11.7761 7 11.5 7H10.5ZM10 9.5C10 9.22386 10.2239 9 10.5 9H11.5C11.7761 9 12 9.22386 12 9.5C12 9.77614 11.7761 10 11.5 10H10.5C10.2239 10 10 9.77614 10 9.5Z" fill="white" fill-rule="evenodd" clip-rule="evenodd"/>
</svg>
