<svg width="16" height="16" viewBox="0 0 16 16" fill="none" xmlns="http://www.w3.org/2000/svg">
<path d="M14.5 4.5C14.5 6.15685 13.1569 7.5 11.5 7.5C11.4137 7.5 11.3283 7.49636 11.2439 7.48922C10.527 7.42862 9.73439 7.53681 9.27699 8.09223L4.50955 13.8813C4.18691 14.273 3.70598 14.5 3.19846 14.5C2.26043 14.5 1.5 13.7396 1.5 12.8015C1.5 12.294 1.72696 11.8131 2.11874 11.4905L7.90777 6.72301C8.46319 6.26561 8.57138 5.47304 8.51078 4.75607C8.50364 4.67166 8.5 4.58626 8.5 4.5C8.5 2.84315 9.84315 1.5 11.5 1.5C11.9402 1.5 12.3583 1.59482 12.7349 1.76516L10.5508 3.94931C10.7215 4.69309 11.307 5.27857 12.0508 5.44931L14.2349 3.26519C14.4052 3.64178 14.5 4.05982 14.5 4.5Z" stroke="white" stroke-width="1.3" stroke-linecap="round" stroke-linejoin="round"/>
<path d="M3.24482 12.75H3.24982V12.755H3.24482V12.75Z" stroke="white" stroke-width="1.3" stroke-linecap="round" stroke-linejoin="round"/>
</svg>
