<svg width="16" height="16" viewBox="0 0 16 16" fill="none" xmlns="http://www.w3.org/2000/svg">
<path d="M3.26665 10.7333C0.66665 8.13327 0.66665 3.8666 3.26665 1.2666M5.19998 3.13327C4.56752 3.78859 4.17166 4.63611 4.07506 5.54172C3.97847 6.44733 4.18664 7.35929 4.66665 8.13327M7.99998 7.33327C8.73636 7.33327 9.33332 6.73631 9.33332 5.99993C9.33332 5.26356 8.73636 4.6666 7.99998 4.6666C7.2636 4.6666 6.66665 5.26356 6.66665 5.99993C6.66665 6.73631 7.2636 7.33327 7.99998 7.33327ZM7.99998 7.33327L5.33332 14.6666M7.99998 7.33327L10.6667 14.6666M10.8 3.19994C12.1333 4.53327 12.3067 6.6066 11.3333 8.17994M12.7333 1.2666C13.3513 1.88336 13.8417 2.61595 14.1762 3.42244C14.5107 4.22893 14.6829 5.09348 14.6829 5.9666C14.6829 6.83972 14.5107 7.70428 14.1762 8.51076C13.8417 9.31725 13.3513 10.0498 12.7333 10.6666M6.33332 11.9999H9.66665" stroke="white" stroke-width="1.3" stroke-linecap="round" stroke-linejoin="round"/>
</svg>
