<svg width="15" height="15" viewBox="0 0 15 15" fill="none" xmlns="http://www.w3.org/2000/svg">
<path fill-rule="evenodd" clip-rule="evenodd" d="M7.03052 0.463478C7.03052 -0.154493 7.96882 -0.154493 7.96882 0.463478V0.784357C11.313 1.01456 13.9859 3.68646 14.216 7.0309H14.537C15.1543 7.0309 15.1543 7.9691 14.537 7.9691H14.216C13.9858 11.3129 11.3136 13.9855 7.96882 14.2156V14.5365C7.96882 15.1545 7.03052 15.1545 7.03052 14.5365V14.2156C3.68637 13.9848 1.01412 11.3129 0.78396 7.9691H0.463046C-0.154349 7.9691 -0.154349 7.0309 0.463046 7.0309H0.78396C1.01419 3.68712 3.68638 1.0145 7.03117 0.784357V0.463478H7.03052ZM4.92364 4.68386C4.68954 4.66972 4.47667 4.83305 4.43421 5.0697L4.07535 7.07725C3.73964 8.95492 5.80076 10.3106 7.32565 10.9246C7.43369 10.9677 7.55716 10.9709 7.67358 10.9246C9.19841 10.3124 11.2596 8.95426 10.9239 7.07725L10.565 5.0697H10.5631C10.5251 4.85492 10.3399 4.68966 10.1135 4.68452C9.64084 4.67295 9.23633 4.64594 8.8498 4.56106C7.85104 4.34114 7.66967 3.85885 7.25615 4.10963C6.4812 4.58035 5.82208 4.66008 4.92364 4.68386ZM6.35008 5.47803C6.01501 5.55198 5.6703 5.58735 5.2915 5.60599L4.99889 7.24256C4.77251 8.51 6.47807 9.54396 7.49992 9.98382C8.52183 9.54397 10.2273 8.50996 10.0009 7.24256L9.70833 5.60599C8.88963 5.56548 8.23752 5.44459 7.49987 5.04719C7.105 5.26004 6.73339 5.39315 6.35008 5.47803ZM7.96881 1.72517V2.71482C7.96881 3.33279 7.0305 3.33279 7.0305 2.71482V1.72517C4.20464 1.95152 1.95107 4.20468 1.72469 7.0304H2.71445C3.33248 7.0304 3.33248 7.96861 2.71445 7.96861H1.72469C1.95107 10.7942 4.20448 13.048 7.03099 13.2743V12.2847C7.03099 11.6667 7.9693 11.6667 7.9693 12.2847V13.2743C10.7952 13.048 13.0487 10.7948 13.2756 7.96861H12.2858C11.6678 7.96861 11.6678 7.0304 12.2858 7.0304H13.2756C13.0486 4.20485 10.7953 1.95152 7.96881 1.72517Z" fill="white"/>
</svg>
